# xmcd
#
# Track frame offsets: 
#        150
#        15528
#        33368
#        49214
#        65256
#        80479
#        97477
#        115810
#        135991
#        161410
#        178412
#
# Disc length: 2484 seconds
#
# Revision: 0
# Processed by: cddbd v1.5.2PL0 Copyright (c) Steve Scherf et al.
# Submitted via: ExactAudioCopyFreeDBPlugin 1.0
#
DISCID=9009b20b
DTITLE=Roosevelt Sykes - Live at Webster College, St. Louis, 1st Febru
DTITLE=ary, 1974
DYEAR=2011
DGENRE=Blues
TTITLE0=On the Sunny Side of the Street
TTITLE1="44" Blues
TTITLE2=Night Time Is the Right Time
TTITLE3=Honeysuckle Rose
TTITLE4=Drivin' Wheel
TTITLE5=My Baby's Gone
TTITLE6=Goin' Down Slow
TTITLE7=Runnin' the Boogie
TTITLE8=St. James Infirmary Blues
TTITLE9=Pine Top's Boogie Woogie
TTITLE10=On the Sunny Side of the Street
EXTD=
EXTT0=
EXTT1=
EXTT2=
EXTT3=
EXTT4=
EXTT5=
EXTT6=
EXTT7=
EXTT8=
EXTT9=
EXTT10=
PLAYORDER=
